<mxfile host="app.diagrams.net" modified="2024-02-08T06:30:30.271Z" agent="Mozilla/5.0 (Macintosh; Intel Mac OS X 10_15_7) AppleWebKit/537.36 (KHTML, like Gecko) Chrome/113.0.0.0 Safari/537.36" version="23.1.2" etag="ul_EYWKNgOuSdcOXggdF" type="github">
  <diagram name="Page-1" id="_mREswY1ousirdIuV7XH">
    <mxGraphModel>
      <root>
        <mxCell id="0" />
        <mxCell id="1" parent="0" />
      </root>
    </mxGraphModel>
  </diagram>
</mxfile>
